<svg xmlns="http://www.w3.org/2000/svg" viewBox="0 0 601.55 443.06"><defs><style>.cls-1{fill:#f5f5f5;}.cls-2{fill:#e0e0e0;}.cls-3{opacity:0.2;}.cls-4{fill:#e8505b;}.cls-5{fill:#263238;}.cls-6{fill:#455a64;}.cls-7{fill:#b78876;}.cls-8{fill:#a36957;}.cls-9{opacity:0.3;}.cls-10{fill:#fafafa;}.cls-11{opacity:0.5;}.cls-12{fill:#fff;}</style></defs><g id="Layer_2" data-name="Layer 2"><g id="Background_Complete" data-name="Background Complete"><rect class="cls-1" x="65.2" y="143.03" width="134.99" height="198.77" transform="translate(-112.37 114.69) rotate(-33.78)"/><polygon class="cls-2" points="186.09 279.66 184.81 287.54 129.03 279.5 130.31 271.62 186.09 279.66"/><polygon class="cls-2" points="158 251.55 166 252.7 157.13 307.62 149.12 306.46 158 251.55"/><path class="cls-2" d="M106.62,181.75c.08.11-11.17,7.78-25.11,17.1s-25.33,16.8-25.41,16.68,11.16-7.78,25.12-17.11S106.54,181.63,106.62,181.75Z"/><path class="cls-2" d="M147.88,171.39c.08.12-18.62,12.76-41.76,28.24s-42,27.93-42.05,27.82,18.61-12.77,41.76-28.25S147.8,171.27,147.88,171.39Z"/><path class="cls-2" d="M156.15,183.75c.08.12-18.62,12.77-41.76,28.25s-42,27.93-42,27.81S91,227.05,114.1,211.56,156.07,183.63,156.15,183.75Z"/><path class="cls-2" d="M164.42,196.12c.08.12-18.61,12.77-41.75,28.24s-42,27.94-42.06,27.82,18.62-12.77,41.77-28.25S164.34,196,164.42,196.12Z"/><path class="cls-2" d="M172.7,208.49c.08.12-18.62,12.76-41.76,28.24s-42,27.93-42.06,27.81,18.62-12.76,41.77-28.24S172.62,208.37,172.7,208.49Z"/><rect class="cls-1" x="451.34" y="250.43" width="113.37" height="166.93" transform="translate(-99.88 338.8) rotate(-33.78)"/><polygon class="cls-2" points="552.87 365.18 551.8 371.8 504.95 365.05 506.02 358.43 552.87 365.18"/><polygon class="cls-2" points="529.27 341.57 536 342.54 528.54 388.66 521.82 387.69 529.27 341.57"/><path class="cls-2" d="M486.13,283c.08.12-9.36,6.57-21.07,14.4s-21.28,14.09-21.36,14,9.35-6.56,21.07-14.4S486.05,282.83,486.13,283Z"/><path class="cls-2" d="M520.78,274.25c.08.12-15.61,10.76-35,23.75s-35.26,23.45-35.34,23.33,15.61-10.76,35.05-23.76S520.7,274.13,520.78,274.25Z"/><path class="cls-2" d="M527.73,284.63c.08.12-15.62,10.76-35.05,23.76s-35.26,23.44-35.34,23.32S473,321,492.39,308,527.65,284.52,527.73,284.63Z"/><path class="cls-2" d="M534.67,295c.08.12-15.61,10.76-35,23.76s-35.26,23.44-35.34,23.32,15.61-10.75,35-23.76S534.59,294.9,534.67,295Z"/><path class="cls-2" d="M541.62,305.41c.08.12-15.61,10.75-35.05,23.75s-35.26,23.44-35.34,23.33,15.61-10.76,35-23.76S541.54,305.29,541.62,305.41Z"/><rect class="cls-1" x="209.47" y="90.69" width="116.6" height="171.69" transform="translate(114.9 -105.42) rotate(28.14)"/><polygon class="cls-2" points="261.09 232.37 254.57 234.6 238.01 188.83 244.53 186.59 261.09 232.37"/><polygon class="cls-2" points="271.09 199.53 273.47 206.1 228.01 221.67 225.63 215.1 271.09 199.53"/><path class="cls-2" d="M303.39,132c-.08.15-10.51-5.27-23.29-12.1s-23.08-12.5-23-12.65,10.51,5.27,23.29,12.1S303.47,131.84,303.39,132Z"/><path class="cls-2" d="M328.06,159.23c-.08.15-17.34-8.93-38.54-20.27s-38.34-20.66-38.26-20.81,17.34,8.92,38.55,20.27S328.14,159.08,328.06,159.23Z"/><path class="cls-2" d="M322,170.56c-.08.15-17.34-8.92-38.54-20.26s-38.34-20.67-38.26-20.82,17.34,8.93,38.55,20.27S322.08,170.41,322,170.56Z"/><path class="cls-2" d="M315.94,181.89c-.08.15-17.34-8.92-38.54-20.26S239.06,141,239.14,140.82s17.34,8.92,38.55,20.26S316,181.74,315.94,181.89Z"/><path class="cls-2" d="M309.88,193.22c-.08.15-17.34-8.92-38.54-20.26S233,152.3,233.08,152.15s17.34,8.92,38.55,20.26S310,193.07,309.88,193.22Z"/><rect class="cls-3" x="307.84" width="2.58" height="43.98"/></g><g id="Lamp"><path class="cls-4" d="M248.9,97.19H369.36S358.24,44,308.22,44C263.72,44,248.9,97.19,248.9,97.19Z"/><rect class="cls-4" x="307.84" width="2.58" height="43.98"/></g><g id="Floor"><path class="cls-5" d="M577.33,439.83c0,.14-129.25.26-288.65.26S0,440,0,439.83s129.22-.26,288.68-.26S577.33,439.68,577.33,439.83Z"/></g><g id="Plant"><path class="cls-4" d="M32,377.2a12.64,12.64,0,0,1,8.79,4.5,22.27,22.27,0,0,1,4.47,9c1.69,6.32.65,13.79-1.15,20.08-6.85-2.45-11.07-9.75-13-13.59-3-6.06-4.78-18.86.87-20"/><path class="cls-4" d="M53.91,418.45a10.76,10.76,0,0,1-.51-10.78A14.25,14.25,0,0,1,62,400.76c1.67-.52,3.6-.73,5.06.24a4.6,4.6,0,0,1,1.77,4.31,9.37,9.37,0,0,1-2,4.42c-3.33,4.51-7.38,8.26-13,8.72"/><path class="cls-5" d="M54.66,439.58a7.08,7.08,0,0,1-.3-1.31c-.19-.94-.42-2.15-.71-3.6a37.73,37.73,0,0,1-.75-12.11,23.14,23.14,0,0,1,4.49-11.21,15.68,15.68,0,0,1,2.6-2.63,9.32,9.32,0,0,1,.81-.58,1.27,1.27,0,0,1,.31-.18,24.72,24.72,0,0,0-3.45,3.59,23.85,23.85,0,0,0-4.29,11.08c-.64,4.66.15,8.93.61,12,.25,1.53.44,2.77.56,3.63A7.38,7.38,0,0,1,54.66,439.58Z"/><path class="cls-5" d="M34.16,386.83a2.34,2.34,0,0,1,.28.51l.7,1.53c.61,1.33,1.46,3.26,2.49,5.65,2.06,4.79,4.82,11.45,7.69,18.87s5.33,14.19,7,19.12c.85,2.46,1.53,4.46,2,5.85l.51,1.6a3.65,3.65,0,0,1,.15.57,2.46,2.46,0,0,1-.24-.54c-.15-.4-.35-.92-.59-1.57L52,432.62c-1.78-4.89-4.28-11.65-7.16-19.06s-5.58-14.09-7.56-18.91c-1-2.37-1.77-4.3-2.35-5.71-.25-.64-.46-1.15-.62-1.56A3.49,3.49,0,0,1,34.16,386.83Z"/><path class="cls-4" d="M46.54,425.6A25.18,25.18,0,0,0,27,413.47c-2-.14-4.45.2-5.36,2s.31,4,1.69,5.46a21.48,21.48,0,0,0,23.27,5.2"/><path class="cls-5" d="M30.1,418.89a7,7,0,0,1,1.26.05,12,12,0,0,1,1.48.17c.57.11,1.23.17,1.94.37a19.41,19.41,0,0,1,2.31.64,24.47,24.47,0,0,1,2.57,1,28.4,28.4,0,0,1,5.42,3.21,27.23,27.23,0,0,1,4.47,4.44A21.1,21.1,0,0,1,51.13,431a19.76,19.76,0,0,1,1.17,2.09c.36.64.57,1.27.81,1.8a11.1,11.1,0,0,1,.5,1.4,6.82,6.82,0,0,1,.33,1.23c-.1,0-.59-1.72-1.93-4.28a22,22,0,0,0-1.21-2A23.53,23.53,0,0,0,49.21,429a28.89,28.89,0,0,0-4.42-4.33,29.19,29.19,0,0,0-5.31-3.19c-.88-.38-1.71-.74-2.52-1a21,21,0,0,0-2.26-.69C31.89,419.09,30.08,419,30.1,418.89Z"/></g><g id="Character"><path class="cls-5" d="M484,105.48c-2.94.67-4.37,4.06-4.65,7.06s.1,6.18-1.16,8.92c-1.42,3.08-4.81,5.36-4.93,8.75-.06,2.07,1.16,4,1.11,6.09-.1,3.4-3.57,6-3.75,9.36-.13,2.45,1.5,4.79,1.11,7.21-.31,1.88-1.77,3.36-2.39,5.16-1.24,3.6,1.23,7.55,4.45,9.57a14.57,14.57,0,0,0,21.24-6.78c1.78-4.32,1.39-9.19,1-13.84q-1.81-21.76-2.69-43.58"/><path class="cls-6" d="M475.49,156.66a3.43,3.43,0,0,0,1.34-1.59,5.62,5.62,0,0,0,.35-2.45,14,14,0,0,0-.73-3.23,9.16,9.16,0,0,1-.52-4.1c.25-1.56,1.36-2.84,2.38-4.1a9.1,9.1,0,0,0,1.35-2.05,3.36,3.36,0,0,0,.16-2.4c-.52-1.63-2.12-2.83-2.86-4.72a5.12,5.12,0,0,1-.16-2.92,11.61,11.61,0,0,1,1-2.61,22.36,22.36,0,0,0,2-4.71c.71-3.17.38-6.2.86-8.69a9.62,9.62,0,0,1,2.52-5.32,5.61,5.61,0,0,1,1.33-1,2.07,2.07,0,0,1,.53-.19,7.43,7.43,0,0,0-1.71,1.28,9.7,9.7,0,0,0-2.31,5.25,32.58,32.58,0,0,0-.28,4,24.68,24.68,0,0,1-.47,4.69,22.42,22.42,0,0,1-2,4.82c-.75,1.57-1.44,3.41-.78,5.13s2.25,2.91,2.85,4.75a3.82,3.82,0,0,1-.18,2.75,9.8,9.8,0,0,1-1.44,2.16c-1,1.26-2.09,2.46-2.33,3.86a9.11,9.11,0,0,0,.45,3.93,13.21,13.21,0,0,1,.67,3.32,5.75,5.75,0,0,1-.45,2.54,3.06,3.06,0,0,1-1,1.26A1.58,1.58,0,0,1,475.49,156.66Z"/><path class="cls-7" d="M467.62,180.37l-9,26-37.64,2-6.28,14,39.3,4a14.85,14.85,0,0,0,19.65-8.71l10.49-29.28Z"/><path class="cls-7" d="M545.48,425.7s-27.59-87.62-28.17-90.46c-.53-2.58,10-65.63,11.34-82l-37.28,1.39V255l-15.84.88L489.72,435h17.15l-1.7-59.45c10.58,28.39,25.73,57.33,25.73,57.33Z"/><path class="cls-8" d="M505.87,396.88c0-.54-.21-19.92-.21-19.92-.21,1.16-6.57-16.82-6.42-17.91C499.32,358.48,505.87,396.88,505.87,396.88Z"/><path class="cls-8" d="M498.51,350.53a4.42,4.42,0,0,0-.11,1.09c0,.7,0,1.72,0,3,0,.63.09,1.31.17,2.05s.19,1.52.36,2.33a39.62,39.62,0,0,0,1.4,5.22c1.25,3.63,2.62,6.8,3.6,9.1l1.19,2.71a4,4,0,0,0,.51,1,3.79,3.79,0,0,0-.3-1c-.23-.66-.58-1.61-1-2.78-.88-2.34-2.19-5.54-3.43-9.13a45.19,45.19,0,0,1-1.42-5.14c-.19-.8-.3-1.57-.41-2.29s-.19-1.4-.24-2c-.12-1.24-.17-2.24-.2-2.94A4.16,4.16,0,0,0,498.51,350.53Z"/><path class="cls-6" d="M489.39,435.91V434.3l17.57-.77.05,6.65-1.09.07c-4.82.28-24.54,1.1-27.77.13C474.55,439.3,489.39,435.91,489.39,435.91Z"/><path class="cls-5" d="M507.25,439.78a2.29,2.29,0,0,1-.3,0l-.86.06-3.18.14c-2.68.11-6.39.21-10.49.23s-7.81-.05-10.49-.13l-3.18-.13-.86,0-.3,0a1.71,1.71,0,0,1,.3,0h.86l3.18.06c2.69,0,6.39.08,10.49.06s7.8-.09,10.49-.16l3.17-.08h1.17Z"/><path class="cls-5" d="M483.7,440.34a6.42,6.42,0,0,0-.6-1.51,6.93,6.93,0,0,0-1.08-1.21,2.83,2.83,0,0,1,1.68,2.72Z"/><path class="cls-5" d="M488.85,437.71c-.05,0-.3-.27-.55-.67s-.43-.75-.38-.78.3.26.56.66S488.9,437.68,488.85,437.71Z"/><path class="cls-5" d="M490.26,437c0,.05-.31-.14-.61-.41s-.52-.52-.48-.56.32.14.62.41S490.3,436.91,490.26,437Z"/><path class="cls-5" d="M491.15,435.3a2,2,0,0,1-.91.12,2,2,0,0,1-.91-.09,2,2,0,0,1,.91-.12A2,2,0,0,1,491.15,435.3Z"/><path class="cls-5" d="M491.46,434.14a1.86,1.86,0,0,1-1,.3,1.89,1.89,0,0,1-1.05-.14,5.71,5.71,0,0,1,1-.08A5.28,5.28,0,0,1,491.46,434.14Z"/><path class="cls-5" d="M488.25,436.18a3,3,0,0,1-1.12,0,6.37,6.37,0,0,1-1.2-.26,3,3,0,0,1-.68-.28.59.59,0,0,1-.28-.35.44.44,0,0,1,.17-.45,2.05,2.05,0,0,1,2.55.6,1.86,1.86,0,0,1,.36.75.69.69,0,0,1,0,.3,3.22,3.22,0,0,0-.52-1,2.11,2.11,0,0,0-1-.62,1.78,1.78,0,0,0-1.34.1c-.18.13-.11.34.09.46a3.85,3.85,0,0,0,.63.27,8.89,8.89,0,0,0,1.16.29C487.82,436.15,488.25,436.15,488.25,436.18Z"/><path class="cls-5" d="M488,436.24a1.16,1.16,0,0,1-.13-.78,2,2,0,0,1,.3-.82,1.15,1.15,0,0,1,.94-.58.45.45,0,0,1,.34.52,1.18,1.18,0,0,1-.18.5,4.13,4.13,0,0,1-.53.69,1.64,1.64,0,0,1-.64.45s.22-.2.53-.56a3.88,3.88,0,0,0,.47-.67c.15-.24.25-.67,0-.72s-.57.26-.74.48a2,2,0,0,0-.31.73A4.06,4.06,0,0,0,488,436.24Z"/><path class="cls-5" d="M506.88,435s-.5,0-1.29.05a5.5,5.5,0,0,0-4.57,3.67c-.26.75-.29,1.26-.33,1.25a1.07,1.07,0,0,1,0-.35,4.62,4.62,0,0,1,.19-.95,5.4,5.4,0,0,1,1.76-2.61,5.33,5.33,0,0,1,2.93-1.15,4.08,4.08,0,0,1,1,0A1.29,1.29,0,0,1,506.88,435Z"/><path class="cls-5" d="M498.46,438.38a14,14,0,0,1-5.11,0c0-.06,1.15,0,2.56,0S498.46,438.32,498.46,438.38Z"/><path class="cls-5" d="M501.89,438.35s-.1.24-.21.5-.18.5-.24.49-.09-.27.05-.58S501.85,438.3,501.89,438.35Z"/><path class="cls-5" d="M503.17,436.74s-.07.22-.25.4-.36.3-.4.26.07-.22.25-.41S503.13,436.69,503.17,436.74Z"/><path class="cls-5" d="M505,436c0,.06-.25.06-.5.15s-.44.23-.49.19.1-.28.42-.39S505,435.94,505,436Z"/><path class="cls-5" d="M506.33,435.64c0,.06-.08.15-.22.2s-.28.06-.3,0,.08-.15.22-.2S506.31,435.59,506.33,435.64Z"/><path class="cls-6" d="M530.56,434.36l-.67-1.47L545.61,425l2.76,6-1,.51c-4.28,2.23-21.94,11.05-25.28,11.49C518.41,443.53,530.56,434.36,530.56,434.36Z"/><path class="cls-5" d="M548.43,430.57s-.08.06-.26.16l-.76.4-2.84,1.44c-2.4,1.19-5.75,2.8-9.48,4.5s-7.14,3.15-9.62,4.18l-3,1.19-.81.31a1,1,0,0,1-.28.09l.27-.13.79-.35,2.92-1.25c2.47-1.06,5.87-2.54,9.59-4.24s7.08-3.28,9.5-4.44l2.87-1.37.78-.37Z"/><path class="cls-5" d="M527.18,440.74A6.59,6.59,0,0,0,526,439.6a7.18,7.18,0,0,0-1.49-.66,2.37,2.37,0,0,1,1.6.48A2.28,2.28,0,0,1,527.18,440.74Z"/><path class="cls-5" d="M530.8,436.22s-.38-.12-.78-.38-.69-.51-.66-.56.38.12.78.38S530.83,436.17,530.8,436.22Z"/><path class="cls-5" d="M531.78,435a1.44,1.44,0,0,1-.73-.12c-.39-.13-.69-.27-.67-.33a1.44,1.44,0,0,1,.73.12C531.5,434.76,531.8,434.9,531.78,435Z"/><path class="cls-5" d="M531.91,433.08c0,.06-.32.27-.78.49a2.2,2.2,0,0,1-.87.29c0-.06.32-.27.78-.49A2.2,2.2,0,0,1,531.91,433.08Z"/><path class="cls-5" d="M531.71,431.9s-.28.4-.8.69a1.76,1.76,0,0,1-1,.3,5.63,5.63,0,0,1,.92-.49C531.3,432.13,531.67,431.85,531.71,431.9Z"/><path class="cls-5" d="M529.63,435.08a3.24,3.24,0,0,1-1,.46,7.7,7.7,0,0,1-1.19.25,3,3,0,0,1-.74,0,.57.57,0,0,1-.4-.2.44.44,0,0,1,0-.48,2.06,2.06,0,0,1,2.57-.5,2.15,2.15,0,0,1,.64.53c.12.16.16.26.15.27a2.87,2.87,0,0,0-.86-.67,2,2,0,0,0-1.13-.17,1.73,1.73,0,0,0-1.18.64c-.11.19,0,.35.27.38a4,4,0,0,0,.69,0,8,8,0,0,0,1.17-.21C529.22,435.22,529.62,435.05,529.63,435.08Z"/><path class="cls-5" d="M529.39,435.25a1.11,1.11,0,0,1-.44-.66,1.76,1.76,0,0,1-.06-.87,1.14,1.14,0,0,1,.61-.91c.25-.08.84.43.88.62s-.3.09-.31.25a3.46,3.46,0,0,1-.21.83,1.62,1.62,0,0,1-.39.68s.12-.27.25-.72a3.55,3.55,0,0,0,.15-.81c0-.28,0-.71-.31-.64s-.42.46-.48.74a1.89,1.89,0,0,0,0,.79A3.83,3.83,0,0,0,529.39,435.25Z"/><path class="cls-5" d="M546.13,426.36s-.47.17-1.15.58a5.58,5.58,0,0,0-2.09,2.22,5.65,5.65,0,0,0-.58,3c.07.8.25,1.26.22,1.28s-.07-.11-.15-.32a5.06,5.06,0,0,1-.22-.94,5.47,5.47,0,0,1,.54-3.11,5.41,5.41,0,0,1,2.2-2.25,4.75,4.75,0,0,1,.89-.38A1.19,1.19,0,0,1,546.13,426.36Z"/><path class="cls-5" d="M539.84,432.9a9.72,9.72,0,0,1-2.22,1.27,10.31,10.31,0,0,1-2.42.85c0-.06,1-.46,2.33-1S539.81,432.85,539.84,432.9Z"/><path class="cls-5" d="M543,431.47c.06,0,0,.25,0,.54s0,.53,0,.55-.19-.22-.19-.55S542.9,431.44,543,431.47Z"/><path class="cls-5" d="M543.47,429.47s0,.23-.07.47-.2.42-.26.4,0-.23.07-.47S543.41,429.45,543.47,429.47Z"/><path class="cls-5" d="M544.85,428c0,.06-.2.15-.4.34s-.31.39-.37.37,0-.3.23-.53S544.84,428,544.85,428Z"/><path class="cls-5" d="M545.9,427.18s0,.16-.12.27-.23.17-.27.13,0-.16.12-.27S545.86,427.14,545.9,427.18Z"/><path class="cls-4" d="M526.23,223.64l-2.93-35.7,15,.27s.7-5.27-1.51-16.81c-1.36-7.08-6.08-11.42-11.37-14v-.1l-.46-.12a42.92,42.92,0,0,0-13.77-3.59l-18.45.21s-14.09-1.76-21.89,8.29c-3,3.87-12.3,30.36-12.3,30.36l22.14,10.66-2.1-14.69s.41,10.65,1.77,14c.76,1.88,3,7.72,3,7.72l-.28,17.62Z"/><polygon class="cls-4" points="516.05 182.76 513.32 194.42 539.15 194.42 537.45 174.86 516.05 182.76"/><path class="cls-5" d="M539.15,194.42a20.88,20.88,0,0,0-3.42-.34c-2.12-.12-5.05-.23-8.29-.21s-6.16.16-8.28.32a19.4,19.4,0,0,0-3.41.42,21.55,21.55,0,0,0,3.43,0c2.12-.07,5-.15,8.27-.16s6.15,0,8.26.05A21.83,21.83,0,0,0,539.15,194.42Z"/><path class="cls-5" d="M514.94,174.77a15,15,0,0,0-.09,3c0,1.83.09,4.35.2,7.14s.24,5.32.36,7.14a16.56,16.56,0,0,0,.31,3,15,15,0,0,0,.09-3c0-1.83-.08-4.36-.19-7.15s-.24-5.31-.36-7.14A15.69,15.69,0,0,0,514.94,174.77Z"/><g class="cls-9"><path d="M491.43,184.87s5.75,42.57,21.89,41.44c0,0,7.26-.08,9.6-4.91v-1.9Z"/></g><g class="cls-9"><polygon points="514.94 177.28 511.85 198.15 513.85 201.81 517.14 194.65 515.75 194.61 514.94 177.28"/></g><path class="cls-5" d="M483.35,210.16a4.25,4.25,0,0,1-.43-1c-.25-.65-.59-1.6-1-2.79a81.8,81.8,0,0,1-2.47-9.45,67.24,67.24,0,0,1-1.23-9.69c-.06-1.25-.08-2.26-.06-3a4.21,4.21,0,0,1,.08-1.08c.08,0,.14,1.54.35,4a89,89,0,0,0,1.37,9.61c.74,3.72,1.63,7.05,2.31,9.44.32,1.11.59,2.06.81,2.84A3.88,3.88,0,0,1,483.35,210.16Z"/><path class="cls-5" d="M489.88,222.39c-.14,0-.54-.87-.89-2a4.89,4.89,0,0,1-.4-2.2c.14,0,.54.88.89,2.05A4.91,4.91,0,0,1,489.88,222.39Z"/><path class="cls-5" d="M492.11,222.23a6.36,6.36,0,0,1-.59-3.11A6.26,6.26,0,0,1,492,216a20.81,20.81,0,0,1,0,3.12A20.56,20.56,0,0,1,492.11,222.23Z"/><path class="cls-5" d="M481.18,203.6c-.06.12-5.22-2.32-11.51-5.46s-11.34-5.8-11.27-5.93,5.21,2.32,11.51,5.46S481.25,203.47,481.18,203.6Z"/><path class="cls-7" d="M490.26,157.25c.12-5.06.15-10.38.15-10.38s-6.49-1.25-7.62-9.79c-1.08-8.14,1.93-27.25,1.93-27.25h0c9.48-3.58,19.33-.33,25.83,7.35h0l-1.62,41.07c-.18,4.77-4.43,8.41-9.54,8.17h0C494.24,166.17,490.15,162.07,490.26,157.25Z"/><path class="cls-5" d="M484.23,125.1a1.09,1.09,0,0,0,1,1.13,1,1,0,0,0,1.15-1,1.08,1.08,0,0,0-1-1.12A1,1,0,0,0,484.23,125.1Z"/><path class="cls-5" d="M483.83,123.67c.13.14,1-.45,2.14-.41s2,.64,2.15.5-.07-.32-.43-.61a3,3,0,0,0-1.72-.57,2.81,2.81,0,0,0-1.71.5C483.89,123.35,483.76,123.6,483.83,123.67Z"/><path class="cls-5" d="M496.14,125.84a1.09,1.09,0,0,0,1,1.13,1,1,0,0,0,1.15-1,1.08,1.08,0,0,0-1-1.12A1,1,0,0,0,496.14,125.84Z"/><path class="cls-5" d="M496.06,124.41c.13.15,1-.44,2.14-.41s2,.64,2.15.5-.06-.32-.43-.6a2.9,2.9,0,0,0-1.72-.58,2.87,2.87,0,0,0-1.71.5C496.12,124.09,496,124.34,496.06,124.41Z"/><path class="cls-5" d="M491.57,133a7.4,7.4,0,0,0-1.89-.39c-.3,0-.58-.11-.63-.31a1.62,1.62,0,0,1,.22-.89c.31-.71.62-1.47,1-2.25a39.67,39.67,0,0,0,2.14-5.92,39,39,0,0,0-2.61,5.73l-.91,2.27a1.76,1.76,0,0,0-.19,1.17.79.79,0,0,0,.49.46,2.05,2.05,0,0,0,.5.08A7.59,7.59,0,0,0,491.57,133Z"/><path class="cls-8" d="M490.41,146.87a21.66,21.66,0,0,0,11.46-2.75s-2.91,5.77-11.4,4.76Z"/><path class="cls-5" d="M499.81,121c-.24.37-1.13.21-2.13,0s-1.89-.38-2-.81.93-1,2.26-.73S500.06,120.68,499.81,121Z"/><path class="cls-5" d="M488.15,119.3c-.09.43-1,.59-2.15.64s-2.07,0-2.2-.44.8-1.06,2.13-1.12S488.24,118.89,488.15,119.3Z"/><path class="cls-8" d="M491.59,135.81a.6.6,0,0,0-.65.3.69.69,0,0,0,.16.83.68.68,0,0,0,.84,0,.69.69,0,0,0,.18-.83.68.68,0,0,0-.78-.33"/><path class="cls-5" d="M491.87,135.93c.05-.05-.19-.34-.7-.23a.88.88,0,0,0-.64.63,1,1,0,0,0,.35,1.06,1,1,0,0,0,1.12,0,.86.86,0,0,0,.37-.83c-.11-.53-.5-.61-.51-.54s.14.25.1.56a.45.45,0,0,1-.24.37.5.5,0,0,1-.5,0,.53.53,0,0,1-.18-.49.49.49,0,0,1,.27-.37C491.58,135.92,491.83,136,491.87,135.93Z"/><path class="cls-5" d="M506.62,127.21c-1,2.34-3.48,4.15-3.14,6.68.22,1.63,1.27,3.15,1.06,4.79-.25,2-2.39,3.48-2.69,5.53-.37,2.51,2.07,4.46,3,6.8,1.42,3.42-.4,7.26-.44,11a11.73,11.73,0,0,0,10.39,11.42c2.29.19,4.86-.5,6-2.46,1-1.62.78-3.68,1.37-5.47.87-2.68,3.42-4.64,4-7.4,1-5-5.11-9.2-4.71-14.32.18-2.19,1.52-4.09,2.1-6.21a9.1,9.1,0,0,0-1.79-8.09c-1.5-1.79-3.68-3-5-4.92-1.45-2.21-1.5-5-2.05-7.61a19.17,19.17,0,0,0-30.45-11.23s-1.45,6.59,5.31,7.7,9.9-.17,10.67,2.54a7.14,7.14,0,0,0,2,6.19C505.16,125.13,507.79,124.49,506.62,127.21Z"/><path class="cls-6" d="M517.41,172.92a2.43,2.43,0,0,1-.62-.06,9.78,9.78,0,0,1-1.72-.47,12.19,12.19,0,0,1-5.23-3.87,13.65,13.65,0,0,1-2.23-4,15.85,15.85,0,0,1-.91-5.13,20.82,20.82,0,0,1,.73-5.71,24.39,24.39,0,0,1,.95-2.89,27.25,27.25,0,0,0,1.1-2.87,5.34,5.34,0,0,0,0-2.94,15.55,15.55,0,0,0-1.14-2.74,18,18,0,0,1-1.16-2.71,5.85,5.85,0,0,1-.21-2.87c.4-1.88,1.54-3.28,2.22-4.71a9,9,0,0,0,.9-4.26,10.05,10.05,0,0,0-2.23-5.9,18.24,18.24,0,0,0-1.7-1.65,6.77,6.77,0,0,1,1.86,1.52,10.11,10.11,0,0,1,2.44,6,9.14,9.14,0,0,1-.89,4.46c-.68,1.48-1.79,2.89-2.13,4.61s.47,3.53,1.36,5.27a15.58,15.58,0,0,1,1.18,2.83,5.89,5.89,0,0,1,0,3.2,26.61,26.61,0,0,1-1.12,2.93,25.35,25.35,0,0,0-.94,2.83,21,21,0,0,0-.74,5.57,14.46,14.46,0,0,0,2.95,8.88,12.22,12.22,0,0,0,5,3.91C516.56,172.77,517.42,172.86,517.41,172.92Z"/><path class="cls-6" d="M516.42,122.46a7.24,7.24,0,0,1-1.49.22,15.51,15.51,0,0,1-4.12-.11,7.83,7.83,0,0,1-5.2-3.15,16.42,16.42,0,0,1-1.36-3.36,5.58,5.58,0,0,0-2.28-2.81c-2.19-1.39-4.76-1.56-7-1.83a12.21,12.21,0,0,1-5.82-1.82,5.77,5.77,0,0,1-2.39-3.33,3.71,3.71,0,0,1-.08-1.13,1.76,1.76,0,0,1,.08-.39,7.69,7.69,0,0,0,.2,1.47,5.72,5.72,0,0,0,2.4,3.08,12.06,12.06,0,0,0,5.67,1.64c2.23.26,4.9.39,7.24,1.87a6.06,6.06,0,0,1,2.47,3.07,18.08,18.08,0,0,0,1.29,3.28,7.57,7.57,0,0,0,4.87,3,17.18,17.18,0,0,0,4,.27A10.27,10.27,0,0,1,516.42,122.46Z"/><path class="cls-6" d="M513.93,114.32a3.19,3.19,0,0,1-1.17.17,7.13,7.13,0,0,1-5-2,9.18,9.18,0,0,1-1.55-2.07c-.91-1.52-1.77-3.39-3.64-4.17a12,12,0,0,0-5.61-.49,17.19,17.19,0,0,1-4.78,0,6,6,0,0,1-2.95-1.32,3.83,3.83,0,0,1-.59-.66q-.17-.26-.15-.27s.28.32.87.77a6.25,6.25,0,0,0,2.88,1.12,18.13,18.13,0,0,0,4.68-.08,12,12,0,0,1,5.86.5,5.73,5.73,0,0,1,2.38,2,25.94,25.94,0,0,1,1.46,2.42,9.15,9.15,0,0,0,1.44,2,7.06,7.06,0,0,0,1.72,1.27,7.38,7.38,0,0,0,3,.83C513.51,114.33,513.93,114.27,513.93,114.32Z"/><path class="cls-6" d="M520.4,170.76s.26-.66.63-1.9a17.16,17.16,0,0,0,.67-5.36,16.56,16.56,0,0,0-2.13-7.63c-.73-1.31-1.85-2.48-2.75-3.92a7,7,0,0,1-1-2.41,5.51,5.51,0,0,1,.22-2.7c.56-1.73,1.57-3.18,1.78-4.77s-.53-3-1.29-4.33a19.19,19.19,0,0,1-1.07-2,7.32,7.32,0,0,1-.57-2.09,18.87,18.87,0,0,1,.11-3.81,10.13,10.13,0,0,0-.47-5.32,4.84,4.84,0,0,0-1.18-1.56s0,0,.12.06a1.68,1.68,0,0,1,.32.23,3.56,3.56,0,0,1,.92,1.19,9.87,9.87,0,0,1,.66,5.43,19.17,19.17,0,0,0-.05,3.73,9.46,9.46,0,0,0,1.62,3.88,13.3,13.3,0,0,1,1.09,2.13,5.1,5.1,0,0,1,.3,2.52c-.24,1.75-1.27,3.23-1.79,4.86a5,5,0,0,0-.21,2.45,6.45,6.45,0,0,0,.93,2.23c.86,1.39,2,2.58,2.73,3.95a16.52,16.52,0,0,1,2.09,7.87,16.18,16.18,0,0,1-.84,5.43,14.12,14.12,0,0,1-.58,1.38A2.38,2.38,0,0,1,520.4,170.76Z"/><path class="cls-5" d="M479.66,357.09s-6.73-63.84-7.12-87.43,10.61-46.87,10.61-46.87L526.23,221s8.52,23.93,8.67,34c.3,19.54-5.19,38.83-4.56,54.33l1.44,47.8"/><path class="cls-10" d="M533.22,278.6a5,5,0,0,1-.7.54l-.39.27c-.14.12-.27.26-.42.41a6.44,6.44,0,0,0-1,1.07c-1.39,1.7-2.41,4.75-3.37,8.54a28.7,28.7,0,0,1-2.18,6.08,11.61,11.61,0,0,1-1,1.51c-.19.24-.36.5-.56.73l-.67.66a10.47,10.47,0,0,1-3.24,2.08c-2.41,1.06-5.13,1.56-7.62,2.81a12.06,12.06,0,0,0-5.53,6.3c-1.21,2.71-1.94,5.55-3,8.21s-2.34,5.2-4.49,6.82a12.38,12.38,0,0,1-7.05,2.21c-2.32.14-4.47.07-6.4.36A10.07,10.07,0,0,0,480.9,329a6.69,6.69,0,0,0-2.24,3.16,4.8,4.8,0,0,0-.17,2.45c.11.56.27.83.23.84a2.69,2.69,0,0,1-.33-.82,4.66,4.66,0,0,1,.07-2.53,6.89,6.89,0,0,1,2.26-3.33,10.25,10.25,0,0,1,4.95-2c2-.32,4.13-.28,6.42-.43a11.9,11.9,0,0,0,6.78-2.16,14.54,14.54,0,0,0,4.32-6.62c1-2.63,1.72-5.48,3-8.24a12.52,12.52,0,0,1,5.77-6.55c2.59-1.28,5.31-1.77,7.66-2.79a10.36,10.36,0,0,0,3.12-2l.64-.63c.2-.22.36-.47.54-.7a9.71,9.71,0,0,0,.94-1.45,29.2,29.2,0,0,0,2.2-6c1-3.78,2.1-6.87,3.57-8.58a6.49,6.49,0,0,1,1-1.06c.16-.14.3-.28.45-.39l.41-.26A6.43,6.43,0,0,1,533.22,278.6Z"/><path class="cls-10" d="M533.49,249.06a5.58,5.58,0,0,1,0,.85,10.48,10.48,0,0,1-.3,2.45,15.79,15.79,0,0,1-4.86,7.52,29,29,0,0,1-5,3.69c-1.93,1.14-4.06,2.23-6.24,3.47a32.35,32.35,0,0,0-6.39,4.49,24.61,24.61,0,0,0-4.83,6.79,62.15,62.15,0,0,1-4.2,7.39,17.61,17.61,0,0,1-2.73,3,17.15,17.15,0,0,1-3.25,2.16,40,40,0,0,1-6.7,2.57c-2.14.66-4.13,1.25-5.87,2a22.51,22.51,0,0,0-4.48,2.4,13.69,13.69,0,0,0-2.82,2.59,13,13,0,0,0-1.68,2.8,4.43,4.43,0,0,1,.27-.81,10,10,0,0,1,1.25-2.12,13.8,13.8,0,0,1,2.81-2.7,22.74,22.74,0,0,1,4.5-2.5,60.89,60.89,0,0,1,5.89-2.05,40.65,40.65,0,0,0,6.6-2.58,17.05,17.05,0,0,0,3.15-2.12,17.36,17.36,0,0,0,2.65-2.94,64.33,64.33,0,0,0,4.15-7.34,25,25,0,0,1,4.94-6.92,32.8,32.8,0,0,1,6.5-4.54c2.21-1.23,4.34-2.3,6.26-3.43a28.59,28.59,0,0,0,5-3.58,15.94,15.94,0,0,0,4.92-7.31A15.29,15.29,0,0,0,533.49,249.06Z"/><path class="cls-10" d="M472.76,273a.75.75,0,0,1-.09-.2,5.22,5.22,0,0,1-.19-.59,4.78,4.78,0,0,1,.1-2.4c.55-2,2.77-4.57,6.33-5.84,1.77-.61,3.79-1,5.88-1.52a12.77,12.77,0,0,0,6-3.08,12.53,12.53,0,0,0,2.13-3,30.39,30.39,0,0,0,1.5-3.59,38.52,38.52,0,0,1,3.17-7.67,12.22,12.22,0,0,1,6.52-5.07,58.8,58.8,0,0,1,7.49-1.9,24.63,24.63,0,0,0,6.5-2.22,13.63,13.63,0,0,0,4.41-4,14.88,14.88,0,0,0,2.8-8.1,21.76,21.76,0,0,0-.22-3.2,10.56,10.56,0,0,1,.42,3.2,14.81,14.81,0,0,1-2.7,8.31,13.78,13.78,0,0,1-4.5,4.13,24.81,24.81,0,0,1-6.61,2.31,59.44,59.44,0,0,0-7.41,1.91,11.7,11.7,0,0,0-6.26,4.87,38.57,38.57,0,0,0-3.13,7.56,31.19,31.19,0,0,1-1.54,3.65,13.17,13.17,0,0,1-2.23,3.1,13,13,0,0,1-6.25,3.15c-2.12.54-4.13.88-5.87,1.46-3.47,1.18-5.67,3.61-6.26,5.55a4.81,4.81,0,0,0-.19,2.32C472.69,272.75,472.78,273,472.76,273Z"/><path class="cls-10" d="M529.78,327a2.79,2.79,0,0,1,.07.63,6.55,6.55,0,0,1-.18,1.8,10.33,10.33,0,0,1-3.78,5.4,16.74,16.74,0,0,1-4,2.36,52.52,52.52,0,0,1-5,1.72,40.68,40.68,0,0,0-5.4,2,15.38,15.38,0,0,0-4.93,3.59c-1.46,1.52-2.71,3.19-4.11,4.67a18.77,18.77,0,0,1-4.61,3.6,20.31,20.31,0,0,1-9.51,2.48,19,19,0,0,1-6.55-1.09,13.09,13.09,0,0,1-1.66-.71,3,3,0,0,1-.55-.31,3.63,3.63,0,0,1,.6.21,16.72,16.72,0,0,0,1.68.62,20,20,0,0,0,6.47.91,20.21,20.21,0,0,0,9.29-2.53,18.68,18.68,0,0,0,4.47-3.53c1.37-1.46,2.62-3.12,4.11-4.68a16,16,0,0,1,5.08-3.7,41.27,41.27,0,0,1,5.48-2c1.77-.54,3.45-1,5-1.66a16.64,16.64,0,0,0,3.91-2.25,10.26,10.26,0,0,0,3.81-5.16A11.14,11.14,0,0,0,529.78,327Z"/><path class="cls-7" d="M524.87,194.46l-8.33.2a13.71,13.71,0,0,1-1.88,4.73c-7-12.1-12.37-28.3-13.71-34.81.19-.65.43-1.37.71-2.17a9.06,9.06,0,0,0-.11-3.66c-.23-1.45-.63-3.4-.76-4.3-.37-2.76-.81-3.19-1.77-2.88-1.31.43.54,7.73-.53,7.89-.58.08-1.28-2.42-1.49-4.47s-1.13-8.37-1.81-8.79c-1-.62-1.86.36-1.61,2.4s.58,8.24-.51,8.33-2-10.39-2-10.39.16-2.28-1.09-2.23c-2.27.1-.5,11.14-.3,12.19.13.72-1,.86-1.15.07s-.65-10.47-3-10.39c-1.77,0,1.37,9.09.38,11.19s-1.69-7.12-3.38-7c-.62.05-1.09.17.07,5.38a115.82,115.82,0,0,0,4,12.21c2.68,14.45,14.44,60.68,32.87,52.22,10.31-4.74,14.5-25.72,14.5-25.72Z"/><path class="cls-8" d="M489.32,157.2a.49.49,0,0,0,.24,0,.54.54,0,0,0,.38-.58c0-.62-.12-1.52-.27-2.69a42.8,42.8,0,0,1-.46-4.26c0-.84,0-1.74.06-2.69a8.68,8.68,0,0,1,.15-1.44c.07-.45.38-1,.73-.91h.05c.36,0,.64.26.75.68a3.69,3.69,0,0,1,.13,1.34v0h0a83.5,83.5,0,0,0,1.07,8.35c.08.37.17.75.28,1.13q.09.29.21.57a1.87,1.87,0,0,0,.17.3.55.55,0,0,0,.42.26c.41,0,.53-.35.63-.53a2.82,2.82,0,0,0,.18-.61,8.49,8.49,0,0,0,.16-1.22,36.41,36.41,0,0,0-.06-5,12,12,0,0,1-.11-2.51,1.37,1.37,0,0,1,.5-.93.53.53,0,0,1,.43-.05.89.89,0,0,1,.23.1c.07.06.05,0,.11.15a12.1,12.1,0,0,1,.7,2.51c.17.88.33,1.79.47,2.7s.27,1.83.38,2.76a19,19,0,0,0,.46,2.85,9.59,9.59,0,0,0,.45,1.41,2.6,2.6,0,0,0,.41.71.62.62,0,0,0,.6.22.67.67,0,0,0,.41-.45,5,5,0,0,0,.1-1.56c0-.5-.06-1-.1-1.48-.07-.84-.15-1.67-.18-2.49a9.68,9.68,0,0,1,0-1.21,2,2,0,0,1,.12-.52.48.48,0,0,1,.1-.15l0,0,.13,0c.66-.27.88.65,1.06,1.39s.25,1.58.4,2.37c.27,1.57.6,3.14.78,4.64a5.34,5.34,0,0,1-.09,2.16c-.24.72-.47,1.43-.7,2.14l0,.07v.06a115.11,115.11,0,0,0,4.48,14.46c1.58,4.27,3.16,8,4.56,11s2.64,5.35,3.51,6.93c.43.76.78,1.35,1,1.79a5.07,5.07,0,0,0,.38.6,3.31,3.31,0,0,0-.3-.64l-1-1.83c-.81-1.61-2-4-3.36-7s-2.89-6.73-4.44-11a117.69,117.69,0,0,1-4.37-14.42v.14c.23-.7.47-1.41.7-2.12a5.89,5.89,0,0,0,.13-2.39c-.18-1.57-.51-3.09-.77-4.67-.15-.78-.25-1.58-.41-2.4a4.75,4.75,0,0,0-.41-1.24,1.23,1.23,0,0,0-.55-.56,1.27,1.27,0,0,0-.79,0l-.17,0a.61.61,0,0,0-.22.13.91.91,0,0,0-.26.35,2.57,2.57,0,0,0-.16.68,9.46,9.46,0,0,0,0,1.3c0,.84.11,1.68.18,2.52,0,.49.09,1,.11,1.45a4.84,4.84,0,0,1-.08,1.35c0,.1-.07.08,0,.13h0s0,0,0,0h0v0s0,0,0,0l-.06-.06a2.26,2.26,0,0,1-.31-.54,8.57,8.57,0,0,1-.42-1.33,18.59,18.59,0,0,1-.45-2.77c-.11-.94-.25-1.87-.39-2.79s-.3-1.82-.48-2.72a12.75,12.75,0,0,0-.76-2.67,1,1,0,0,0-.32-.35,1.38,1.38,0,0,0-.37-.16,1.08,1.08,0,0,0-.84.12,1.87,1.87,0,0,0-.74,1.3,4.85,4.85,0,0,0,0,1.37c.05.43.09.85.13,1.27a38.81,38.81,0,0,1,.09,4.92,8.54,8.54,0,0,1-.15,1.16,4,4,0,0,1-.15.52.61.61,0,0,1-.11.18c0,.09-.07,0-.07.12.06-.1,0,0,0-.13a1.05,1.05,0,0,1-.12-.21,4.45,4.45,0,0,1-.19-.51c-.11-.36-.2-.73-.28-1.09-.59-2.94-.87-5.74-1.13-8.28v0a4.35,4.35,0,0,0-.16-1.49,1.49,1.49,0,0,0-.39-.66,1.06,1.06,0,0,0-.74-.28h.05a.87.87,0,0,0-.86.41,2.24,2.24,0,0,0-.31.78,8.86,8.86,0,0,0-.13,1.5c0,1,0,1.87,0,2.72a36.73,36.73,0,0,0,.56,4.28c.17,1.16.3,2.06.36,2.67a.47.47,0,0,1-.3.52Z"/><path class="cls-7" d="M424.2,208.23a21.41,21.41,0,0,0-5.79.67c-5.17,1.36-14.08,6.76-14.45,13.43h6.47s-3.62,7.72-2.56,7c2.77-1.86,8.27-7.45,8.27-7.45Z"/><path class="cls-5" d="M512.52,92c-.14,0-.73-5.34-1.31-12s-.94-12-.79-12,.73,5.34,1.31,12S512.67,92,512.52,92Z"/><path class="cls-5" d="M540.93,68.41c.12.08-4.26,6.43-9.77,14.18s-10.08,14-10.19,13.88,4.25-6.43,9.77-14.18S540.81,68.33,540.93,68.41Z"/><path class="cls-5" d="M552.73,97.19c0,.14-5.07,1.31-11.4,2.61s-11.48,2.24-11.51,2.1,5.08-1.31,11.41-2.61S552.71,97.05,552.73,97.19Z"/></g><g id="Folder"><path class="cls-4" d="M212.62,234.54l-35.36,181.8-4.63,23.8L408.7,439c10.59-.05,20-9.46,23.39-23.44L474,243.91c2.59-10.61-3.09-21.65-11.13-21.64l-238.93.25C218.62,222.53,214,227.45,212.62,234.54Z"/><g class="cls-11"><path d="M212.62,234.54l-35.36,181.8-4.63,23.8L408.7,439c10.59-.05,20-9.46,23.39-23.44L474,243.91c2.59-10.61-3.09-21.65-11.13-21.64l-238.93.25C218.62,222.53,214,227.45,212.62,234.54Z"/></g><path class="cls-4" d="M386.05,404l-25-201.41c-1-8.25-7.6-14.41-15.36-14.38l-54.81.17a15,15,0,0,0-10.82,4.8l-26,27.67-152.42.79c-9.32.05-16.47,8.87-15.24,18.77l23.21,186.15c1,8.24,7.58,14.39,15.34,14.38l265.64-.53c29.59.61,32.41-8.12,32.41-8.12C389.08,439.83,386.06,404.05,386.05,404Z"/><g class="cls-11"><polygon class="cls-12" points="271.51 363.72 262.55 373.34 193.55 311.26 202.51 301.64 271.51 363.72"/><polygon class="cls-12" points="258.8 299.51 268.7 308.42 206.26 375.47 196.36 366.56 258.8 299.51"/></g></g><g id="Speech_Bubble" data-name="Speech Bubble"><path class="cls-4" d="M424,103.78a1.85,1.85,0,0,1-1.13-1.63l-.4-9.28a1.86,1.86,0,0,1,2.29-1.9,5.79,5.79,0,0,0,4.51-.89,5.26,5.26,0,0,0,2.34-3.42,5.38,5.38,0,0,0-1.12-4,6,6,0,0,0-3.94-2.37,7,7,0,0,0-7.1,5,1.87,1.87,0,1,1-3.6-1A10.75,10.75,0,0,1,427,76.56a9.66,9.66,0,0,1,6.49,3.83,8.65,8.65,0,0,1-2.11,12.79,9.72,9.72,0,0,1-5.06,1.65l.31,7.16a1.87,1.87,0,0,1-1.79,1.94A1.83,1.83,0,0,1,424,103.78Z"/><path class="cls-4" d="M426.72,107.58a1.52,1.52,0,1,1-1.63-1.42A1.52,1.52,0,0,1,426.72,107.58Z"/><path class="cls-5" d="M391.85,90.69a2.36,2.36,0,0,0,.09-.6c.05-.44.12-1,.2-1.79a21.44,21.44,0,0,1,.48-2.88,18.34,18.34,0,0,1,.41-1.81c.19-.63.4-1.31.62-2a34.49,34.49,0,0,1,5-9.53,33.51,33.51,0,0,1,31-13.05c.77.08,1.52.28,2.29.41a16.76,16.76,0,0,1,2.3.56,31.88,31.88,0,0,1,9,4.05,33.44,33.44,0,0,1,13.22,16.6,33,33,0,0,1,2,11.41,32.17,32.17,0,0,1-2.1,11.74l-.45,1.14-.06.15.06.15,7.36,16.93.42-.48-15-5.75-.18-.07-.15.14a33.61,33.61,0,0,1-14.14,8.16,33.1,33.1,0,0,1-14.74.67A32.69,32.69,0,0,1,407.12,120a34,34,0,0,1-8.43-7.85,33.21,33.21,0,0,1-6.4-15.34c-.12-1-.23-1.84-.32-2.6s0-1.38-.05-1.91,0-.88,0-1.17a2.59,2.59,0,0,0,0-.4,3.15,3.15,0,0,0,0,.4c0,.29,0,.68,0,1.17v1.93c.08.76.17,1.63.26,2.62a37.25,37.25,0,0,0,1.71,7.06,37.05,37.05,0,0,0,4.59,8.5,34.47,34.47,0,0,0,8.49,8,33.75,33.75,0,0,0,27.41,4.38,34.08,34.08,0,0,0,14.43-8.29l-.33.07,15,5.78.76.29-.33-.77c-2.39-5.49-4.84-11.15-7.35-16.93v.29l.47-1.17A32.9,32.9,0,0,0,459,92a33.44,33.44,0,0,0-2-11.66,34.09,34.09,0,0,0-13.51-16.91,32.55,32.55,0,0,0-9.12-4.1,16.19,16.19,0,0,0-2.34-.55c-.79-.14-1.56-.34-2.33-.41a34.54,34.54,0,0,0-4.62-.26,33.68,33.68,0,0,0-8.68,1.18,34.31,34.31,0,0,0-7.5,3.14,33.73,33.73,0,0,0-10.58,9.35,34.41,34.41,0,0,0-4.92,9.68l-.6,2c-.19.63-.25,1.26-.37,1.83a20.6,20.6,0,0,0-.43,2.9c-.05.77-.09,1.36-.13,1.8A5.6,5.6,0,0,0,391.85,90.69Z"/></g></g></svg>